<svg width="16" height="17" viewBox="0 0 16 17" fill="none" xmlns="http://www.w3.org/2000/svg">
<path fill-rule="evenodd" clip-rule="evenodd" d="M6.43771 14.9377C6.60606 15.1061 6.84175 15.2071 7.08418 15.2071H8.91582C9.15825 15.2071 9.39394 15.1061 9.56229 14.9377C9.73064 14.7694 9.83165 14.5337 9.83165 14.2912V10.3316L13.7912 10.3316C14.0337 10.3316 14.2694 10.2306 14.4377 10.0623C14.6061 9.89394 14.7071 9.65825 14.7071 9.41582L14.7071 7.58417C14.7071 7.34175 14.6061 7.10606 14.4377 6.93771C14.2694 6.76936 14.0337 6.66835 13.7912 6.66835L9.83165 6.66835L9.83165 2.70875C9.83165 2.46633 9.73064 2.23064 9.56229 2.06229C9.39394 1.89394 9.15825 1.79293 8.91582 1.79293H7.08418C6.84175 1.79293 6.60606 1.89394 6.43771 2.06229C6.26936 2.23064 6.16835 2.46633 6.16835 2.70875L6.16835 6.66835L2.20875 6.66835C1.96633 6.66835 1.73064 6.76936 1.56229 6.93771C1.39394 7.10606 1.29293 7.34175 1.29293 7.58417L1.29293 9.41582C1.29293 9.65825 1.39394 9.89394 1.56229 10.0623C1.73064 10.2306 1.96633 10.3316 2.20875 10.3316L6.16835 10.3316V14.2912C6.16835 14.5337 6.26936 14.7694 6.43771 14.9377Z" fill="#5A5A5A"/>
</svg>
